<svg width="640" height="360" viewBox="0 0 640 360" fill="none" xmlns="http://www.w3.org/2000/svg" role="img" aria-labelledby="title desc">
  <title id="title">Passeios e serviços turísticos</title>
  <desc id="desc">Ilustração de sol, ônibus, barco e mala para representar experiências turísticas.</desc>
  <rect width="640" height="360" rx="32" fill="#FFF7ED"/>
  <circle cx="512" cy="76" r="46" fill="#FB923C" opacity="0.25"/>
  <path d="M66 246C121 195 178 188 237 224C292 257 348 258 405 226C465 192 518 201 574 250V312H66V246Z" fill="#FFEDD5"/>
  <path d="M92 250H548" stroke="#FDBA74" stroke-width="10" stroke-linecap="round"/>
  <rect x="136" y="150" width="194" height="86" rx="18" fill="#0F172A"/>
  <rect x="156" y="170" width="46" height="28" rx="8" fill="#E0F2FE"/>
  <rect x="214" y="170" width="46" height="28" rx="8" fill="#E0F2FE"/>
  <rect x="272" y="170" width="34" height="28" rx="8" fill="#E0F2FE"/>
  <path d="M154 236H304" stroke="#FB923C" stroke-width="8" stroke-linecap="round"/>
  <circle cx="178" cy="242" r="16" fill="#1E293B" stroke="#FFF7ED" stroke-width="6"/>
  <circle cx="288" cy="242" r="16" fill="#1E293B" stroke="#FFF7ED" stroke-width="6"/>
  <path d="M384 196L444 166L514 196L496 238H402L384 196Z" fill="#0284C7"/>
  <path d="M398 199H500" stroke="#7DD3FC" stroke-width="8" stroke-linecap="round"/>
  <path d="M450 118V166" stroke="#0F172A" stroke-width="8" stroke-linecap="round"/>
  <path d="M450 124C474 128 489 140 496 160H450V124Z" fill="#FB923C"/>
  <rect x="366" y="220" width="52" height="52" rx="12" fill="#FB923C"/>
  <path d="M381 220V210C381 202 387 196 395 196C403 196 409 202 409 210V220" stroke="#0F172A" stroke-width="7" stroke-linecap="round"/>
  <path d="M114 108C137 86 168 86 191 108" stroke="#FB923C" stroke-width="10" stroke-linecap="round"/>
  <path d="M128 124C144 111 164 111 180 124" stroke="#FDBA74" stroke-width="8" stroke-linecap="round"/>
</svg>
