<svg width="640" height="360" viewBox="0 0 640 360" fill="none" xmlns="http://www.w3.org/2000/svg" role="img" aria-labelledby="title desc">
  <title id="title">Valide passagens com QR Code</title>
  <desc id="desc">Ilustração de celular escaneando um QR Code com confirmação verde.</desc>
  <rect width="640" height="360" rx="32" fill="#F8FAFC"/>
  <circle cx="494" cy="94" r="52" fill="#DBEAFE"/>
  <rect x="112" y="58" width="198" height="256" rx="30" fill="#0F172A"/>
  <rect x="134" y="92" width="154" height="188" rx="18" fill="#FFFFFF"/>
  <rect x="158" y="116" width="42" height="42" rx="7" fill="#0F172A"/>
  <rect x="222" y="116" width="42" height="42" rx="7" fill="#0F172A"/>
  <rect x="158" y="180" width="42" height="42" rx="7" fill="#0F172A"/>
  <rect x="222" y="180" width="16" height="16" rx="3" fill="#0F172A"/>
  <rect x="248" y="206" width="16" height="16" rx="3" fill="#0F172A"/>
  <rect x="222" y="232" width="42" height="12" rx="3" fill="#FB923C"/>
  <path d="M352 114H506" stroke="#CBD5E1" stroke-width="10" stroke-linecap="round"/>
  <path d="M352 246H506" stroke="#CBD5E1" stroke-width="10" stroke-linecap="round"/>
  <rect x="344" y="142" width="184" height="78" rx="24" fill="#FFFFFF" stroke="#E2E8F0" stroke-width="6"/>
  <circle cx="386" cy="181" r="28" fill="#DCFCE7"/>
  <path d="M374 181L383 190L400 172" stroke="#16A34A" stroke-width="8" stroke-linecap="round" stroke-linejoin="round"/>
  <path d="M432 181H492" stroke="#0F172A" stroke-width="10" stroke-linecap="round"/>
  <rect x="146" y="290" width="130" height="10" rx="5" fill="#FB923C"/>
</svg>
